<svg width="28" height="28" viewBox="0 0 28 28" fill="none" xmlns="http://www.w3.org/2000/svg">
<path d="M7.16336 10.3339C8.35814 10.3339 9.32671 9.36373 9.32671 8.16695C9.32671 6.97018 8.35814 6 7.16336 6C5.96857 6 5 6.97018 5 8.16695C5 9.36373 5.96857 10.3339 7.16336 10.3339Z" fill="#FAFAFA"/>
<path d="M11.3695 11.9768V23.999H15.096V18.0538C15.096 16.485 15.3907 14.9657 17.3326 14.9657C19.2477 14.9657 19.2715 16.7593 19.2715 18.1528V24H23V17.407C23 14.1685 22.3039 11.6797 18.525 11.6797C16.7107 11.6797 15.4945 12.677 14.9972 13.6208H14.9468V11.9768H11.3695ZM5.2967 11.9768H9.02917V23.999H5.2967V11.9768Z" fill="#FAFAFA"/>
</svg>
