<svg width="28" height="28" viewBox="0 0 28 28" fill="none" xmlns="http://www.w3.org/2000/svg">
<path d="M24.1538 8.00739C23.3759 8.34661 22.5402 8.57581 21.6617 8.67941C22.5682 8.14563 23.2464 7.30553 23.5697 6.31586C22.718 6.81368 21.7859 7.16409 20.8139 7.35186C20.1603 6.66504 19.2945 6.20981 18.351 6.05684C17.4074 5.90386 16.439 6.06171 15.596 6.50587C14.753 6.95003 14.0826 7.65566 13.6889 8.5132C13.2951 9.37073 13.2001 10.3322 13.4185 11.2483C11.6929 11.1631 10.0047 10.7217 8.46354 9.95278C6.92241 9.1839 5.5628 8.10472 4.47292 6.78527C4.10027 7.41787 3.88599 8.15133 3.88599 8.93245C3.88557 9.63565 4.06154 10.3281 4.39828 10.9483C4.73502 11.5685 5.22211 12.0973 5.81635 12.4879C5.12719 12.4663 4.45324 12.283 3.85059 11.9534V12.0084C3.85052 12.9946 4.19719 13.9505 4.83178 14.7139C5.46636 15.4773 6.34978 16.001 7.33213 16.1964C6.69282 16.3667 6.02256 16.3917 5.37196 16.2697C5.64912 17.1184 6.189 17.8604 6.91603 18.3921C7.64306 18.9238 8.52083 19.2184 9.42646 19.2347C7.8891 20.4224 5.99046 21.0666 4.03598 21.0638C3.68977 21.0639 3.34385 21.044 3 21.0042C4.98391 22.2595 7.29332 22.9257 9.65192 22.9231C17.6361 22.9231 22.0008 16.4155 22.0008 10.7716C22.0008 10.5882 21.9962 10.403 21.9878 10.2197C22.8368 9.61546 23.5696 8.86726 24.152 8.01014L24.1538 8.00739V8.00739Z" fill="#FAFAFA"/>
</svg>
